<?xml version="1.0" encoding="utf-8"?>
<svg width="480" height="480" viewBox="0 0 480 480" fill="none" xmlns="http://www.w3.org/2000/svg">
  <g transform="translate(13.383 13.407)">
    <g transform="translate(6.112 5.455)">
      <path
        d="M44.48 67.104C33.684 60.8737 19.1619 54.882 6.34113 51.3683C2.93195 50.4339 0.0797729 49.6066 0.00292969 49.5298C-0.193146 49.3336 9.56601 0.320151 9.85956 0.0266041C10.2142 -0.327998 22.2818 2.9356 29.8753 5.43975C40.0118 8.78248 47.5268 11.8859 58.4456 17.2384C66.14 21.0101 77.5632 27.2378 79.0659 28.48C79.3368 28.704 51.2275 70.63 50.8322 70.5916C50.628 70.5717 47.7694 69.0023 44.48 67.104C44.48 67.104 44.48 67.104 44.48 67.104Z"
        fill="#42BBCB" fill-rule="evenodd" stroke-width="3" stroke="#42BBCB" transform="translate(261.617 0.299)" />
      <path
        d="M14.0141 50.1182C5.39266 37.2108 -0.101143 28.8271 0.00141144 28.7346C0.0942383 28.6509 1.48016 27.7912 3.08134 26.8242C20.1536 16.513 38.4132 8.532 57.5121 3.03322C62.0891 1.71542 69.2224 -0.0880076 69.4964 0.00333667C69.6556 0.0563751 79.6876 49.8865 79.5665 50.022C79.5403 50.0513 77.9893 50.4688 76.1199 50.9498C60.314 55.0165 44.6062 61.5771 30.3514 70.0659C30.3514 70.0659 28.1955 71.3498 28.1955 71.3498C28.1955 71.3498 14.0141 50.1182 14.0141 50.1182Z"
        fill="#42BBCB" fill-rule="evenodd" stroke-width="3" stroke="#42BBCB" transform="translate(100.155 0)" />
      <path
        d="M20.9419 78.7188C20.8585 78.4762 20.4601 76.9554 20.0563 75.3393C16.5268 61.2077 10.1252 45.7035 1.98807 31.5797C0.832306 29.5736 -0.0608826 27.8892 0.00323486 27.8364C0.0673218 27.7836 9.54172 21.4272 21.0574 13.7112C33.7323 5.21844 42.1225 -0.190498 42.3181 0.00513458C43.2179 0.904884 48.7472 10.7054 52.1359 17.4071C57.99 28.9843 61.6315 37.6994 65.3321 48.9892C68.3243 58.118 71.1746 68.7404 70.7467 69.1684C70.5978 69.3172 21.9878 79.1134 21.1928 79.1548C21.1382 79.1577 21.0254 78.9614 20.9419 78.7188C20.9419 78.7188 20.9419 78.7188 20.9419 78.7188Z"
        fill="#42BBCB" fill-rule="evenodd" stroke-width="3" stroke="#42BBCB" transform="translate(370.595 101.107)" />
      <path
        d="M2.11719 46.9846C8.58365 36.0175 14.4573 22.3669 18.5669 8.7554C19.9689 4.11151 21.2522 0.175812 21.4186 0.00946045C21.585 -0.156921 32.7063 1.89423 46.1325 4.56754C46.1325 4.56754 70.5439 9.42813 70.5439 9.42813C70.5439 9.42813 70.1088 11.9021 70.1088 11.9021C69.2792 16.6176 64.054 33.2429 60.8275 41.4333C55.7713 54.2682 43.2428 78.3382 41.6912 78.1985C41.4008 78.1722 31.9015 71.9464 20.5815 64.3632C20.5815 64.3632 20.5816 64.3632 20.5816 64.3632C20.5816 64.3632 0 50.5754 0 50.5754C0 50.5754 2.11719 46.9846 2.11719 46.9846Z"
        fill="#42BBCB" fill-rule="evenodd" stroke-width="3" stroke="#42BBCB" transform="translate(370.662 262.579)" />
      <path
        d="M4.55835 46.0864C1.89008 32.6855 -0.156891 21.585 0.00946045 21.4186C0.175842 21.2522 4.11154 19.9689 8.75543 18.5669C22.367 14.4573 36.0175 8.58368 46.9846 2.11722C46.9846 2.11722 50.5755 0 50.5755 0C50.5755 0 64.433 20.7894 64.433 20.7894C72.0546 32.2237 78.1216 41.8524 77.915 42.1864C76.5302 44.4271 49.4701 57.9669 37.6958 62.3105C29.9208 65.1787 12.3395 70.4517 10.5513 70.4517C9.61545 70.4517 8.53543 66.0607 4.55835 46.0864C4.55835 46.0864 4.55835 46.0864 4.55835 46.0864Z"
        fill="#42BBCB" fill-rule="evenodd" stroke-width="3" stroke="#42BBCB" transform="translate(261.945 371.295)" />
      <path
        d="M62.0501 67.9859C43.0329 62.9215 24.1021 54.9876 5.44175 44.2613C5.44175 44.2613 0 41.1332 0 41.1332C0 41.1332 13.468 20.8938 13.468 20.8938C20.8756 9.76196 27.1931 0.374298 27.5071 0.0320129C27.8257 -0.315247 33.6368 2.2016 40.6532 5.72577C51.9699 11.4098 65.2518 16.5242 75.9887 19.3323C77.6383 19.7638 78.9727 20.5015 78.9538 20.9718C78.9351 21.442 76.7765 32.4643 74.1572 45.466C70.6202 63.0226 69.1309 69.1425 68.369 69.2502C67.8048 69.3301 64.9613 68.7611 62.0501 67.9859Z"
        fill="#42BBCB" fill-rule="evenodd" stroke-width="3" stroke="#42BBCB" transform="translate(100.293 372.282)" />
      <path
        d="M23.1349 69.9753C15.3945 56.3689 9.68729 43.2144 4.41068 26.8187C1.51821 17.831 -0.437751 10.0621 0.0844178 9.63516C0.439401 9.34488 47.3452 -0.000396729 48.445 0C48.8772 0.000152588 50.1047 3.09674 51.1727 6.88132C54.8186 19.8004 61.1518 34.6991 68.5524 47.7657C69.4714 49.3884 70.0691 50.8535 69.8803 51.0214C68.6412 52.1241 28.8679 78.3382 28.4338 78.3382C28.136 78.3382 25.7515 74.5749 23.1349 69.9753C23.1349 69.9753 23.1349 69.9753 23.1349 69.9753Z"
        fill="#42BBCB" fill-rule="evenodd" stroke-width="3" stroke="#42BBCB" transform="translate(0 262.486)" />
      <path
        d="M0.0980319 67.2599C0.239816 64.0901 4.18917 50.6287 7.88912 40.7041C11.4365 31.1888 19.6726 13.905 24.6724 5.48387C24.6724 5.48387 27.9283 0 27.9283 0C27.9283 0 48.1332 13.6 48.1332 13.6C59.246 21.08 68.6826 27.4278 69.1036 27.7064C69.609 28.0409 69.0729 29.5992 67.5254 32.2938C60.9299 43.7786 54.3327 59.4612 50.7267 72.2273C49.3059 77.2572 48.4996 79.0534 47.6862 79.001C47.0774 78.9617 36.0989 76.797 23.2896 74.1906C23.2896 74.1906 23.2896 74.1905 23.2896 74.1905C23.2896 74.1905 0 69.4516 0 69.4516C0 69.4516 0.0980319 67.2599 0.0980319 67.2599Z"
        fill="#42BBCB" fill-rule="evenodd" stroke-width="3" stroke="#42BBCB" transform="translate(0.374 100.842)" />
    </g>
    <g>
      <path
        d="M4.87651 28.9024C2.27054 15.7844 0.0772705 4.57515 0.0025177 3.99292C-0.325562 1.43695 31.4257 -0.894301 49.7464 0.340596C64.9222 1.3635 74.3135 2.60444 74.3533 3.59207C74.3701 4.00661 72.228 15.2439 69.5934 28.5638C69.5934 28.5638 64.8029 52.7818 64.8029 52.7818C64.8029 52.7818 62.6541 52.3787 62.6541 52.3787C50.7031 50.1366 22.3129 50.135 11.4452 52.3758C11.4452 52.3758 9.61459 52.7531 9.61459 52.7531C9.61459 52.7531 4.87651 28.9024 4.87651 28.9024Z"
        fill="#DFDFDF" fill-rule="evenodd" stroke-width="3" stroke="#DFDFDF" transform="translate(189.409 0)" />
      <path
        d="M33.3121 74.2882C27.2096 66.555 11.9204 51.3726 4.75961 45.9351C2.04248 43.8719 -0.0978088 41.8876 0.00344849 41.5256C0.216187 40.765 20.0358 10.9517 24.6835 4.40091C24.6835 4.40091 27.806 0 27.806 0C27.806 0 33.5736 4.38739 33.5736 4.38739C49.3405 16.3812 63.9698 31.1315 77.3026 48.4781C77.3026 48.4781 80.676 52.8669 80.676 52.8669C80.676 52.8669 59.6255 66.9122 59.6255 66.9122C59.6255 66.9122 38.575 80.9574 38.575 80.9574C38.575 80.9574 33.3121 74.2882 33.3121 74.2882Z"
        fill="#DFDFDF" fill-rule="evenodd" stroke-width="3" stroke="#DFDFDF" transform="translate(330.605 42.123)" />
      <path
        d="M0.379242 62.3105C0.578613 61.1446 1.14157 55.0029 1.63022 48.6624C2.34323 39.4108 2.34399 34.8114 1.63422 25.3727C1.14771 18.904 0.580994 12.6318 0.374847 11.4344C0.374847 11.4344 0 9.25728 0 9.25728C0 9.25728 24.7765 4.30316 24.7765 4.30316C49.14 -0.568405 49.5583 -0.626221 49.8776 0.834229C50.6938 4.56877 51.7035 14.3061 52.3703 24.8749C53.1308 36.9277 52.4529 54.5129 50.7369 67.2481C49.9254 73.2712 49.7899 73.606 48.1168 73.7176C47.1464 73.7822 35.9269 71.7191 23.1846 69.1328C23.1846 69.1328 23.1845 69.1328 23.1845 69.1328C23.1845 69.1328 0.0167542 64.4304 0.0167542 64.4304C0.0167542 64.4304 0.379242 62.3105 0.379242 62.3105Z"
        fill="#DFDFDF" fill-rule="evenodd" stroke-width="3" stroke="#DFDFDF" transform="translate(400.52 189.755)" />
      <path
        d="M5.05634 35.0684C11.5018 30.2399 29.3173 12.4386 34.7513 5.39719C34.7513 5.39719 38.9164 0 38.9164 0C38.9164 0 59.6254 13.8039 59.6254 13.8039C71.0155 21.396 80.3345 27.898 80.3345 28.253C80.3345 30.4999 64.8394 48.4312 52.9891 59.8976C43.9972 68.5983 29.8181 80.3104 28.2768 80.3104C27.9221 80.3104 21.4146 70.9832 13.8159 59.5834C13.8159 59.5834 0 38.8563 0 38.8563C0 38.8563 5.05634 35.0684 5.05634 35.0684Z"
        fill="#DFDFDF" fill-rule="evenodd" stroke-width="3" stroke="#DFDFDF" transform="translate(330.193 330.193)" />
      <path
        d="M26.2581 52.6075C20.4429 52.2981 2.05698 50.3279 0.429733 49.8398C-0.554703 49.5444 -0.0707397 46.3672 4.25153 24.7508C4.25153 24.7508 9.20053 0 9.20053 0C9.20053 0 11.3776 0.374847 11.3776 0.374847C12.575 0.581024 18.8472 1.14774 25.316 1.63422C34.7546 2.34406 39.3541 2.34326 48.6056 1.63022C54.9462 1.14157 61.0876 0.578644 62.2532 0.379333C62.2532 0.379333 64.3727 0.0169067 64.3727 0.0169067C64.3727 0.0169067 69.2388 24.4564 69.2388 24.4564C72.0907 38.7798 73.8426 49.1462 73.4711 49.5008C71.7802 51.1151 38.8878 53.2794 26.258 52.6075C26.258 52.6075 26.2581 52.6075 26.2581 52.6075Z"
        fill="#DFDFDF" fill-rule="evenodd" stroke-width="3" stroke="#DFDFDF" transform="translate(189.835 400.496)" />
      <path
        d="M42.9579 72.9595C28.4481 61.311 14.5335 47.0167 3.14958 32.0646C1.28444 29.6148 -0.128689 27.5146 0.00930786 27.3974C0.908688 26.6333 40.9213 0.148834 41.3976 0.00238037C41.7241 -0.0980225 44.5535 3.00125 47.6855 6.88968C54.173 14.9443 68.4757 29.0344 75.9083 34.6929C75.9083 34.6929 80.9263 38.5132 80.9263 38.5132C80.9263 38.5132 66.8765 59.5705 66.8765 59.5705C59.1491 71.1521 52.75 80.6234 52.6561 80.618C52.5623 80.6131 48.198 77.1663 42.9579 72.9595C42.9579 72.9595 42.9579 72.9595 42.9579 72.9595Z"
        fill="#DFDFDF" fill-rule="evenodd" stroke-width="3" stroke="#DFDFDF" transform="translate(42.22 330.581)" />
      <path
        d="M2.02533 68.1483C0.0821171 53.8088 -0.492814 38.012 0.430914 24.3403C1.6007 7.02684 2.66846 -0.1763 4.03854 0.00326538C4.60879 0.0780334 15.8082 2.27132 28.9262 4.87726C28.9262 4.87726 52.777 9.61534 52.777 9.61534C52.777 9.61534 52.3995 11.4459 52.3995 11.4459C50.1588 22.3136 50.1604 50.7038 52.4024 62.6548C52.4024 62.6548 52.8055 64.8037 52.8055 64.8037C52.8055 64.8037 28.5876 69.5941 28.5876 69.5941C15.2677 72.2288 4.03044 74.3708 3.6159 74.3541C3.20135 74.3373 2.4856 71.5448 2.02534 68.1483C2.02534 68.1483 2.02533 68.1483 2.02533 68.1483Z"
        fill="#DFDFDF" fill-rule="evenodd" stroke-width="3" stroke="#DFDFDF" transform="translate(0 189.384)" />
      <path
        d="M21.0103 67.4282C9.83326 59.974 0.400085 53.5868 0.0476913 53.2345C-0.930408 52.2564 13.3476 34.8791 23.4197 24.789C31.1552 17.0398 41.3655 8.15533 49.6695 1.94781C49.6695 1.94781 52.2752 0 52.2752 0C52.2752 0 66.2969 21.0485 66.2969 21.0485C66.2969 21.0485 80.3186 42.0971 80.3186 42.0971C80.3186 42.0971 74.0482 47.0373 74.0482 47.0373C65.8061 53.5309 53.7896 65.4939 46.878 74.0866C46.878 74.0866 41.3321 80.9811 41.3321 80.9811C41.3321 80.9811 21.0103 67.4282 21.0103 67.4282Z"
        fill="#DFDFDF" fill-rule="evenodd" stroke-width="3" stroke="#DFDFDF" transform="translate(42.701 41.998)" />
    </g>
    <path
      d="M148.55 323.623C102.612 319.854 59.7446 295.804 31.311 257.85C23.5098 247.437 11.979 225.203 7.9601 212.824C-2.63933 180.175 -2.65374 144.352 7.91923 111.267C9.2583 107.076 13.4708 97.3599 17.2805 89.6747C33.0459 57.871 57.9748 32.9547 89.6628 17.3291C105.053 9.74019 113.893 6.57556 128.599 3.38908C155.287 -2.39298 186.04 -0.71936 212.812 7.97191C225.191 11.9908 247.426 23.5217 257.839 31.3227C279.125 47.2698 295.396 66.6886 306.73 89.6747C317.323 111.16 321.92 127.602 323.587 149.985C329.585 230.494 274.956 303.455 195.843 320.596C187.89 322.319 163.212 325.036 159.632 324.582C159.027 324.506 154.039 324.073 148.55 323.623C148.55 323.623 148.55 323.623 148.55 323.623Z"
      fill="#FFFFFF" fill-rule="evenodd" stroke-width="3" stroke="#FFFFFF" transform="translate(64.594 64.559)" />
  </g>
  <g transform="translate(5.063 5.063)">
    <g transform="translate(1.424 1.424)">
      <path
        d="M0 169.244C0 75.7732 75.7732 0 169.244 0C262.715 0 338.488 75.7732 338.488 169.244C338.488 262.715 262.715 338.488 169.244 338.488C75.7732 338.488 0 262.715 0 169.244Z"
        fill="none" stroke-width="13" stroke="#000000" transform="translate(64.269 64.269)" />
      <path
        d="M0 233.513C0 104.548 104.548 0 233.513 0C362.478 0 467.025 104.548 467.025 233.513C467.025 362.478 362.478 467.025 233.513 467.025C104.548 467.025 0 362.478 0 233.513Z"
        fill="none" stroke-width="13" stroke="#000000" />
    </g>
    <g>
      <path d="M0 72.4379C0 72.4379 14.4118 0 14.4118 0C14.4118 0 0 72.4379 0 72.4379Z" fill="#000000"
        fill-rule="evenodd" stroke-width="13" stroke="#000000" transform="translate(267.267 0.003)" />
      <path d="M0 0C0 0 72.4375 14.414 72.4375 14.414C72.4375 14.414 0 0 0 0Z" fill="#000000" fill-rule="evenodd"
        stroke-width="13" stroke="#000000" transform="translate(397.433 267.264)" />
      <path d="M14.4129 0C14.4129 0 0 72.4377 0 72.4377C0 72.4377 14.4129 0 14.4129 0Z" fill="#000000"
        fill-rule="evenodd" stroke-width="13" stroke="#000000" transform="translate(188.196 397.433)" />
      <path d="M72.4379 14.4118C72.4379 14.4118 0 0 0 0C0 0 72.4379 14.4118 72.4379 14.4118Z" fill="#000000"
        fill-rule="evenodd" stroke-width="13" stroke="#000000" transform="translate(0.003 188.196)" />
      <path d="M0 41.0308C0 41.0308 61.412 0 61.412 0C61.412 0 0 41.0308 0 41.0308Z" fill="#000000" fill-rule="evenodd"
        stroke-width="13" stroke="#000000" transform="translate(372.7 101.865)" />
      <path d="M0 0C0 0 41.03 61.4124 41.03 61.4124C41.03 61.4124 0 0 0 0Z" fill="#000000" fill-rule="evenodd"
        stroke-width="13" stroke="#000000" transform="translate(326.98 372.699)" />
      <path d="M61.4119 0C61.4119 0 0 41.031 0 41.031C0 41.031 61.4119 0 61.4119 0Z" fill="#000000" fill-rule="evenodd"
        stroke-width="13" stroke="#000000" transform="translate(35.763 326.979)" />
      <path d="M41.0305 61.4122C41.0305 61.4122 0 0 0 0C0 0 41.0305 61.4122 41.0305 61.4122Z" fill="#000000"
        fill-rule="evenodd" stroke-width="13" stroke="#000000" transform="translate(101.865 35.763)" />
      <path d="M0 61.4088C0 61.4088 41.0355 0 41.0355 0C41.0355 0 0 61.4088 0 61.4088Z" fill="#000000"
        fill-rule="evenodd" stroke-width="13" stroke="#000000" transform="translate(326.988 35.772)" />
      <path d="M0 0C0 0 61.4101 41.0336 61.4101 41.0336C61.4101 41.0336 0 0 0 0Z" fill="#000000" fill-rule="evenodd"
        stroke-width="13" stroke="#000000" transform="translate(372.692 326.99)" />
      <path d="M41.0351 0C41.0351 0 0 61.4091 0 61.4091C0 61.4091 41.0351 0 41.0351 0Z" fill="#000000"
        fill-rule="evenodd" stroke-width="13" stroke="#000000" transform="translate(101.851 372.693)" />
      <path d="M61.4091 41.0351C61.4091 41.0351 3.8147e-06 0 3.8147e-06 0C3.8147e-06 0 61.4091 41.0351 61.4091 41.0351Z"
        fill="#000000" fill-rule="evenodd" stroke-width="13" stroke="#000000" transform="translate(35.772 101.851)" />
      <path d="M14.4073 72.4388C14.4073 72.4388 0 0 0 0C0 0 14.4073 72.4388 14.4073 72.4388Z" fill="#000000"
        fill-rule="evenodd" stroke-width="13" stroke="#000000" transform="translate(188.213 0)" />
      <path d="M0 14.4073C0 14.4073 72.4388 0 72.4388 0C72.4388 0 0 14.4073 0 14.4073Z" fill="#000000"
        fill-rule="evenodd" stroke-width="13" stroke="#000000" transform="translate(397.435 188.213)" />
      <path d="M0 0C0 0 14.4073 72.4388 14.4073 72.4388C14.4073 72.4388 0 0 0 0Z" fill="#000000" fill-rule="evenodd"
        stroke-width="13" stroke="#000000" transform="translate(267.254 397.435)" />
      <path d="M72.4388 0C72.4388 0 0 14.4073 0 14.4073C0 14.4073 72.4388 0 72.4388 0Z" fill="#000000"
        fill-rule="evenodd" stroke-width="13" stroke="#000000" transform="translate(0 267.254)" />
    </g>
    <g transform="translate(355.354 355.354)">
      <path
        d="M0 3.49327C0 1.56399 1.56399 0 3.49327 0C5.42255 0 6.98653 1.56399 6.98653 3.49327C6.98653 5.42255 5.42255 6.98653 3.49327 6.98653C1.56399 6.98653 0 5.42255 0 3.49327Z"
        fill="#000000" fill-rule="evenodd" stroke-width="0" stroke="#00000F" stroke-linejoin="bevel"
        transform="translate(23.95 0)" />
      <path
        d="M0 3.49327C0 1.56399 1.56399 0 3.49327 0C5.42255 0 6.98653 1.56399 6.98653 3.49327C6.98653 5.42255 5.42255 6.98653 3.49327 6.98653C1.56399 6.98653 0 5.42255 0 3.49327Z"
        fill="#000000" fill-rule="evenodd" stroke-width="0" stroke="#00000F" stroke-linejoin="bevel"
        transform="translate(0 23.855)" />
    </g>
  </g>
  <g transform="translate(92.285 93.283)">
    <g transform="translate(130.748 193.628)">
      <path d="M15.6188 0C15.6188 0 0 14.8 0 14.8C0 14.8 15.6188 0 15.6188 0Z" fill="none" stroke-width="10"
        stroke="#000000" stroke-linejoin="round" transform="translate(0 33.107)" />
      <path
        d="M15.8117 14.5937C15.8117 14.5937 9.53674e-07 0 9.53674e-07 0C9.53674e-07 0 15.8117 14.5937 15.8117 14.5937Z"
        fill="none" stroke-width="10" stroke="#000000" stroke-linejoin="round" transform="translate(15.969 32.937)" />
      <path d="M0 0C0 0 0 25.2342 0 25.2342C0 25.2342 0 0 0 0Z" fill="none" stroke-width="10" stroke="#000000"
        stroke-linejoin="round" transform="translate(15.969 7.702)" />
      <path
        d="M14.819 17.8375C26.6509 17.6467 29.3227 5.8148 29.3227 5.8148C29.3227 5.8148 31.9943 0 14.819 0C-2.35624 0 0.124632 5.8148 0.124632 5.8148C0.124632 5.8148 2.98719 18.0284 14.819 17.8375Z"
        fill="#000000" fill-rule="evenodd" transform="translate(1.165 0)" />
    </g>
    <g transform="translate(51.987 178.235)">
      <path
        d="M0 18.3521C0 8.21652 8.21652 0 18.3521 0C28.4877 0 36.7043 8.21652 36.7043 18.3521C36.7043 28.4877 28.4877 36.7043 18.3521 36.7043C8.21652 36.7043 0 28.4877 0 18.3521Z"
        fill="#000000" fill-rule="evenodd" stroke-width="0" stroke="#00000F" stroke-linejoin="bevel"
        transform="translate(154.754 0)" />
      <path
        d="M0 18.3521C0 8.21652 8.21652 0 18.3521 0C28.4877 0 36.7043 8.21652 36.7043 18.3521C36.7043 28.4877 28.4877 36.7043 18.3521 36.7043C8.21652 36.7043 0 28.4877 0 18.3521Z"
        fill="#000000" fill-rule="evenodd" stroke-width="0" stroke="#00000F" stroke-linejoin="bevel" />
    </g>
    <g>
      <path
        d="M30.823 30.324C39.5416 23.5455 51.2151 1.37235 47.0918 3.14853C46.8353 3.25904 42.048 0.245782 33.888 0.0135376C29.3503 -0.115608 24.8346 0.680428 20.6244 2.35165C16.414 4.02287 12.5998 6.53319 9.42129 9.72507C6.2428 12.9169 3.76858 16.7215 2.15393 20.8998C0.53928 25.0782 -0.180928 29.5401 0.038505 34.0056C0.257947 38.471 1.4123 42.8436 3.4291 46.8488C4.8114 49.5939 7.17301 53.2703 11.0075 56.6401C11.2542 56.857 30.823 30.3239 30.823 30.3239C30.823 30.3239 30.823 30.324 30.823 30.324ZM35.4846 13.1319C31.7141 12.6652 24.4478 13.0234 18.6152 18.8805C12.2135 25.3092 12.8082 32.9949 13.2298 35.554C19.4928 26.8531 27.4349 20.0555 35.4846 13.1319Z"
        fill="#000000" fill-rule="evenodd" />
      <path
        d="M6.59715 33.8378C1.16329 29.0696 -1.15211 21.843 0.549412 14.9622C2.25093 8.08131 7.70151 2.62933 14.7862 0.721756C21.8709 -1.18581 29.4744 0.751302 34.6464 5.78143C34.6464 5.78143 36.8321 15.9923 34.9142 20.5141C32.371 26.5103 26.682 31.4512 20.6218 33.8378C16.2721 35.5508 6.59715 33.8378 6.59715 33.8378C6.59715 33.8378 6.59715 33.8378 6.59715 33.8378Z"
        fill="#FFFFFF" transform="translate(12.69 12.974)" />
      <path
        d="M17.1235 30.324C8.40492 23.5455 -3.2686 1.37235 0.854614 3.14853C1.11115 3.25904 5.89854 0.245782 14.0585 0.0135376C18.5962 -0.115608 23.1119 0.680428 27.3221 2.35165C31.5325 4.02287 35.3467 6.53319 38.5252 9.72507C41.7036 12.9169 44.1779 16.7215 45.7926 20.8998C47.4071 25.0782 48.1275 29.5401 47.908 34.0056C47.6885 38.471 46.5341 42.8436 44.5173 46.8488C43.1351 49.5939 40.7734 53.2703 36.939 56.6401C36.6923 56.857 17.1235 30.3239 17.1235 30.3239C17.1235 30.3239 17.1235 30.324 17.1235 30.324ZM12.4619 13.1319C16.2323 12.6652 23.4986 13.0234 29.3313 18.8805C35.733 25.3092 35.1382 32.9949 34.7167 35.554C28.4536 26.8531 20.5116 20.0555 12.4619 13.1319Z"
        fill="#000000" fill-rule="evenodd" transform="translate(247.421 0)" />
      <path
        d="M29.0668 33.8378C34.5006 29.0696 36.8161 21.843 35.1145 14.9622C33.413 8.08131 27.9624 2.62934 20.8778 0.721761C13.7931 -1.18582 6.18958 0.751306 1.01756 5.78143C1.01756 5.78143 -1.27196 12.7789 1.01756 18.149C3.30708 23.5191 12.0541 31.701 17.367 33.8378C22.6799 35.9746 29.0668 33.8378 29.0668 33.8378Z"
        fill="#FFFFFF" transform="translate(247.015 12.974)" />
    </g>
  </g>
</svg>
